<svg width="24" height="24" viewBox="0 0 24 24" fill="none" xmlns="http://www.w3.org/2000/svg">
<path d="M5 5H11C11.55 5 12 4.55 12 4C12 3.45 11.55 3 11 3H5C3.9 3 3 3.9 3 5V19C3 20.1 3.9 21 5 21H11C11.55 21 12 20.55 12 20C12 19.45 11.55 19 11 19H5V5Z" fill="#9197B3"/>
<path d="M20.65 11.6486L17.86 8.85857C17.7905 8.78713 17.7012 8.73806 17.6036 8.71764C17.506 8.69723 17.4045 8.7064 17.3121 8.74399C17.2198 8.78158 17.1408 8.84586 17.0851 8.92863C17.0295 9.01139 16.9999 9.10887 17 9.20858V10.9986H10C9.45 10.9986 9 11.4486 9 11.9986C9 12.5486 9.45 12.9986 10 12.9986H17V14.7886C17 15.2386 17.54 15.4586 17.85 15.1386L20.64 12.3486C20.84 12.1586 20.84 11.8386 20.65 11.6486Z" fill="#9197B3"/>
</svg>
