<svg width="24" height="24" viewBox="0 0 24 24" fill="none" xmlns="http://www.w3.org/2000/svg">
<path d="M8 22.3194C7.72 22.3194 7.42998 22.2494 7.16998 22.1094C6.59998 21.8094 6.25 21.2094 6.25 20.5694V19.1495C3.23 18.8395 1.25 16.6194 1.25 13.4394V7.43945C1.25 3.99945 3.56 1.68945 7 1.68945H17C20.44 1.68945 22.75 3.99945 22.75 7.43945V13.4394C22.75 16.8794 20.44 19.1894 17 19.1894H13.23L8.96997 22.0295C8.67997 22.2195 8.34 22.3194 8 22.3194ZM7 3.17944C4.42 3.17944 2.75 4.84944 2.75 7.42944V13.4295C2.75 16.0095 4.42 17.6795 7 17.6795C7.41 17.6795 7.75 18.0195 7.75 18.4295V20.5595C7.75 20.6895 7.83 20.7495 7.88 20.7795C7.93001 20.8095 8.03001 20.8395 8.14001 20.7695L12.59 17.8095C12.71 17.7295 12.86 17.6795 13.01 17.6795H17.01C19.59 17.6795 21.26 16.0095 21.26 13.4295V7.42944C21.26 4.84944 19.59 3.17944 17.01 3.17944H7Z" fill="#9197B3"/>
<path d="M12.0037 12.1094C11.5937 12.1094 11.2537 11.7694 11.2537 11.3594V11.1494C11.2537 9.98942 12.1037 9.41941 12.4237 9.19941C12.7937 8.94941 12.9137 8.77942 12.9137 8.51942C12.9137 8.01942 12.5037 7.60938 12.0037 7.60938C11.5037 7.60938 11.0937 8.01942 11.0937 8.51942C11.0937 8.92942 10.7537 9.26942 10.3437 9.26942C9.93375 9.26942 9.59375 8.92942 9.59375 8.51942C9.59375 7.18942 10.6737 6.10938 12.0037 6.10938C13.3337 6.10938 14.4137 7.18942 14.4137 8.51942C14.4137 9.65942 13.5737 10.2294 13.2637 10.4394C12.8737 10.6994 12.7537 10.8694 12.7537 11.1494V11.3594C12.7537 11.7794 12.4137 12.1094 12.0037 12.1094Z" fill="#9197B3"/>
<path d="M12 14.6016C11.58 14.6016 11.25 14.2616 11.25 13.8516C11.25 13.4416 11.59 13.1016 12 13.1016C12.41 13.1016 12.75 13.4416 12.75 13.8516C12.75 14.2616 12.42 14.6016 12 14.6016Z" fill="#9197B3"/>
</svg>
