<svg width="22" height="22" viewBox="0 0 22 22" fill="none" xmlns="http://www.w3.org/2000/svg">
<path d="M5.16418 2.72294C4.87626 2.92748 4.58793 3.11342 4.35716 3.24883C4.24189 3.31647 4.13918 3.37256 4.05707 3.41224C4.01618 3.432 3.9782 3.44877 3.94506 3.46093C3.91975 3.47021 3.88223 3.48272 3.84387 3.48479C3.80281 3.48846 3.76343 3.47966 3.73733 3.47265C3.70427 3.46378 3.66789 3.45061 3.63026 3.43512C3.55465 3.404 3.46241 3.35869 3.36083 3.30407C3.15704 3.19448 2.90543 3.04189 2.65492 2.87489L2.6549 2.87491L2.65253 2.87326L2.00312 2.42198V11.0001V19.5782L2.65253 19.1269L2.65251 19.1269L2.65492 19.1253C2.90498 18.9586 3.15196 18.8065 3.3489 18.6956C3.44714 18.6403 3.53474 18.5942 3.60501 18.5615C3.63998 18.5452 3.67284 18.5312 3.70183 18.5209C3.72568 18.5125 3.7641 18.5001 3.80312 18.5001C3.84703 18.5001 3.89082 18.517 3.91454 18.5265C3.94585 18.5391 3.98237 18.5565 4.02207 18.5767C4.10188 18.6175 4.2039 18.6751 4.32031 18.7442C4.55364 18.8827 4.852 19.0716 5.16062 19.2748L5.16063 19.2748L5.16247 19.276L6.20312 19.9837L7.24378 19.276L7.24377 19.276L7.24563 19.2748C7.55425 19.0716 7.85261 18.8827 8.08594 18.7442C8.20235 18.6751 8.30437 18.6175 8.38418 18.5767C8.42388 18.5565 8.4604 18.5391 8.49171 18.5265C8.51543 18.517 8.55922 18.5001 8.60312 18.5001C8.64702 18.5001 8.69081 18.517 8.71451 18.5265C8.74581 18.5391 8.78236 18.5564 8.82213 18.5766C8.90209 18.6174 9.0045 18.6749 9.12172 18.7439C9.35668 18.8823 9.65856 19.071 9.97424 19.2739L9.97428 19.2738L9.97825 19.2766L11.0045 19.9839L11.8641 19.4108C11.8642 19.4107 11.8644 19.4106 11.8645 19.4105C12.1191 19.2383 12.3547 19.0775 12.5303 18.9561C12.6182 18.8953 12.6907 18.8447 12.7428 18.8075C12.7531 18.8002 12.7625 18.7935 12.771 18.7874C12.7651 18.7576 12.7561 18.7191 12.7441 18.6724C12.7115 18.5455 12.6601 18.3729 12.6007 18.1871C12.0427 16.5428 12.4325 14.8936 13.6721 13.654C13.8945 13.4315 14.1435 13.217 14.3645 13.0498C14.475 12.9662 14.5799 12.8934 14.6723 12.8369C14.7616 12.7822 14.849 12.7367 14.9219 12.7158L14.9219 12.7157L14.9294 12.7139L15.2031 12.6508V7.46008V2.42198L14.5537 2.87326L14.5537 2.87328L14.5513 2.87489C14.3013 3.0416 14.0543 3.19363 13.8573 3.30453C13.7591 3.35985 13.6715 3.40596 13.6012 3.4387C13.5663 3.455 13.5334 3.46901 13.5044 3.47926C13.4806 3.48769 13.4422 3.50008 13.4031 3.50008C13.3592 3.50008 13.3154 3.48316 13.2917 3.47361C13.2604 3.46101 13.2239 3.44371 13.1842 3.42343C13.1044 3.38265 13.0024 3.32504 12.8859 3.25595C12.6526 3.11746 12.3543 2.9286 12.0456 2.72536L12.0456 2.72537L12.0438 2.72412L11.0031 2.01647L9.96247 2.72412L9.96248 2.72413L9.96062 2.72536C9.652 2.9286 9.35364 3.11746 9.12031 3.25595C9.0039 3.32504 8.90188 3.38265 8.82207 3.42343C8.78237 3.44371 8.74585 3.46101 8.71454 3.47361C8.69082 3.48316 8.64703 3.50008 8.60312 3.50008C8.55922 3.50008 8.51543 3.48316 8.49171 3.47361C8.4604 3.46101 8.42388 3.44371 8.38418 3.42343C8.30437 3.38265 8.20235 3.32504 8.08594 3.25595C7.85261 3.11746 7.55425 2.9286 7.24563 2.72536L7.24562 2.72537L7.24353 2.72395C6.93663 2.51436 6.65676 2.3278 6.45042 2.19582C6.34697 2.12964 6.26357 2.0782 6.20508 2.04462C6.19634 2.0396 6.18841 2.03513 6.18125 2.03117M5.16418 2.72294C5.16446 2.72275 5.16473 2.72255 5.16501 2.72236L5.07812 2.60008L5.16351 2.72341C5.16373 2.72325 5.16396 2.7231 5.16418 2.72294ZM5.16418 2.72294C5.4565 2.52057 5.72183 2.33746 5.91777 2.20496C6.01597 2.13857 6.09573 2.08556 6.15237 2.04939C6.16303 2.04259 6.17265 2.03652 6.18125 2.03117M6.18125 2.03117C6.16406 2.02165 6.15133 2.01508 6.14271 2.01106C6.13901 2.00933 6.13737 2.00869 6.13737 2.00868C6.13737 2.00868 6.13843 2.00908 6.14034 2.00967C6.14225 2.01025 6.1501 2.01263 6.16154 2.01384L6.16167 2.01386C6.16361 2.01406 6.16759 2.01448 6.17312 2.01459C6.18093 2.01473 6.19183 2.01423 6.2045 2.01162C6.21314 2.0097 6.21844 2.00766 6.21888 2.0075L6.22468 2.00526L6.22643 2.0045C6.2261 2.00466 6.22529 2.00507 6.22393 2.0058L6.22207 2.00683C6.22794 2.00483 6.23402 2.00234 6.2402 1.99924L6.20853 2.01508H6.20766C6.20028 2.01944 6.19149 2.02479 6.18125 2.03117ZM1.0821 21.0153L1.08209 21.0153L1.08123 21.0146C1.02271 20.9651 0.990493 20.8922 0.968412 20.8161C0.945359 20.7367 0.927062 20.6304 0.911604 20.4899C0.880588 20.2081 0.85848 19.7636 0.842539 19.066C0.810616 17.6689 0.803125 15.2369 0.803125 11.0151C0.803125 7.34018 0.814372 4.90139 0.842525 3.36421C0.856595 2.59598 0.874921 2.05076 0.898359 1.68829C0.91005 1.5075 0.923209 1.36888 0.938341 1.26953C0.945862 1.22016 0.954428 1.17666 0.964758 1.14093C0.972751 1.11328 0.989022 1.06205 1.02706 1.02401C1.08403 0.967045 1.14297 0.916164 1.19642 0.878302C1.22299 0.859484 1.25085 0.841984 1.2784 0.828571C1.3018 0.817181 1.34195 0.800079 1.38813 0.800079C1.41433 0.800079 1.43508 0.807125 1.43982 0.808739L1.44026 0.808887C1.44843 0.81164 1.45558 0.814676 1.46063 0.816933C1.471 0.821564 1.48204 0.827213 1.49252 0.832819C1.51396 0.844292 1.54159 0.860205 1.57377 0.87941C1.63855 0.918087 1.72726 0.973434 1.83299 1.0414C2.04443 1.17733 2.32691 1.36565 2.6281 1.57646C2.92615 1.77762 3.21586 1.96329 3.44139 2.09824C3.55455 2.16594 3.6498 2.21984 3.72106 2.25635C3.75666 2.27459 3.78403 2.28733 3.80343 2.29518C3.80355 2.29513 3.80367 2.29508 3.80379 2.29503C3.82375 2.2871 3.85196 2.27418 3.8886 2.25569C3.96147 2.21893 4.05903 2.16456 4.17484 2.096C4.40596 1.95918 4.70318 1.76974 5.00846 1.56125C5.00849 1.56124 5.00851 1.56122 5.00853 1.56121L6.118 0.796572L6.20312 0.737907L6.28825 0.796572L7.39772 1.56121C7.39774 1.56122 7.39776 1.56124 7.39778 1.56125C7.70306 1.76974 8.00029 1.95918 8.23141 2.096C8.34722 2.16456 8.44478 2.21893 8.51765 2.25569C8.55429 2.27418 8.5825 2.2871 8.60246 2.29503C8.60268 2.29512 8.60291 2.29521 8.60313 2.29529C8.60335 2.29521 8.60357 2.29512 8.60379 2.29503C8.62375 2.2871 8.65196 2.27418 8.6886 2.25569C8.76147 2.21893 8.85903 2.16456 8.97484 2.096C9.20596 1.95918 9.50318 1.76974 9.80846 1.56125C9.80849 1.56124 9.80851 1.56122 9.80853 1.56121L10.918 0.796572L11.0031 0.737907L11.0882 0.796572L12.1977 1.56121C12.1977 1.56122 12.1978 1.56124 12.1978 1.56125C12.5031 1.76974 12.8003 1.95918 13.0314 2.096C13.1472 2.16456 13.2448 2.21893 13.3176 2.25569C13.3543 2.27418 13.3825 2.2871 13.4025 2.29503C13.4027 2.29512 13.4029 2.29521 13.4031 2.29529C13.4033 2.29521 13.4036 2.29512 13.4038 2.29503C13.4238 2.2871 13.452 2.27418 13.4886 2.25569C13.5615 2.21893 13.659 2.16456 13.7748 2.096C14.0058 1.95929 14.3027 1.77006 14.6077 1.56178C15.0626 1.24114 15.3636 1.0481 15.5772 0.956583C15.6852 0.910292 15.7845 0.883728 15.8785 0.88763C15.9788 0.891794 16.0582 0.929892 16.1242 0.984844L16.125 0.985573C16.2182 1.06438 16.2628 1.19619 16.2934 1.37365C16.3254 1.55943 16.3477 1.83602 16.3636 2.24929C16.3956 3.07784 16.4031 4.48364 16.4031 6.87508V12.3198L17.1363 12.3957C17.1367 12.3957 17.1371 12.3957 17.1374 12.3958C19.4185 12.598 21.0825 14.4017 21.0981 16.6838C21.1136 18.4526 20.21 19.8998 18.5992 20.6898L18.5991 20.6898C17.0127 21.4674 15.056 21.1717 13.7511 19.96L13.7508 19.9597L13.3888 19.6219L12.2881 20.3787L11.0881 21.2037L11.003 21.2622L10.918 21.2036L9.80853 20.4389C9.80845 20.4389 9.80837 20.4388 9.80829 20.4388C9.50307 20.2304 9.20592 20.041 8.97484 19.9042C8.85903 19.8356 8.76147 19.7812 8.6886 19.7445C8.65196 19.726 8.62375 19.7131 8.60379 19.7051C8.60356 19.705 8.60334 19.7049 8.60312 19.7049C8.60291 19.7049 8.60268 19.705 8.60246 19.7051C8.5825 19.7131 8.55429 19.726 8.51765 19.7445C8.44478 19.7812 8.34722 19.8356 8.23141 19.9042C8.00034 20.0409 7.7032 20.2303 7.398 20.4388C7.39791 20.4388 7.39781 20.4389 7.39772 20.4389L6.28825 21.2036L6.20312 21.2623L6.118 21.2036L5.00853 20.4389C5.00843 20.4389 5.00834 20.4388 5.00824 20.4388C4.70304 20.2303 4.4059 20.0409 4.17484 19.9042C4.05903 19.8356 3.96147 19.7812 3.8886 19.7445C3.85196 19.726 3.82375 19.7131 3.80379 19.7051C3.80357 19.705 3.80334 19.7049 3.80312 19.7049C3.80291 19.7049 3.80268 19.705 3.80246 19.7051C3.7825 19.7131 3.75429 19.726 3.71765 19.7445C3.64478 19.7812 3.54722 19.8356 3.43141 19.9042C3.2005 20.0409 2.90362 20.2301 2.59863 20.4383C2.14369 20.759 1.84264 20.9521 1.62909 21.0436C1.52107 21.0899 1.42177 21.1164 1.32776 21.1125C1.22746 21.1084 1.14805 21.0703 1.0821 21.0153ZM17.0372 19.9705L17.0384 19.9704C18.1483 19.8983 18.93 19.4567 19.5331 18.5522C19.7778 18.1815 19.9377 17.649 19.9887 17.0841C20.0397 16.52 19.9805 15.9404 19.8033 15.4793C19.671 15.1382 19.3938 14.7542 19.0448 14.4107C18.6968 14.0682 18.2885 13.7769 17.905 13.6134C16.8955 13.1942 15.7718 13.4046 14.8948 14.0127C14.0179 14.6208 13.4031 15.6163 13.4031 16.7451C13.4031 17.5565 13.6997 18.2719 14.3544 18.9995C15.0241 19.7405 15.8466 20.0576 17.0372 19.9705Z" fill="white" stroke="white" stroke-width="0.3"/>
<path d="M3.50313 5.97515C3.35312 6.15515 3.35312 6.24515 3.50313 6.42515C3.66813 6.62015 4.41813 6.65015 8.60313 6.65015C12.7881 6.65015 13.5381 6.62015 13.7031 6.42515C13.8531 6.24515 13.8531 6.15515 13.7031 5.97515C13.5381 5.78015 12.7881 5.75015 8.60313 5.75015C4.41813 5.75015 3.66813 5.78015 3.50313 5.97515Z" fill="white"/>
<path d="M3.50313 8.37505C3.35312 8.55505 3.35312 8.64505 3.50313 8.82505C3.66813 9.02005 4.41813 9.05005 8.60313 9.05005C12.7881 9.05005 13.5381 9.02005 13.7031 8.82505C13.8531 8.64505 13.8531 8.55505 13.7031 8.37505C13.5381 8.18005 12.7881 8.15005 8.60313 8.15005C4.41813 8.15005 3.66813 8.18005 3.50313 8.37505Z" fill="white"/>
<path d="M3.50313 10.7752C3.35312 10.9552 3.35312 11.0452 3.50313 11.2252C3.66813 11.4202 4.41813 11.4502 8.60313 11.4502C12.7881 11.4502 13.5381 11.4202 13.7031 11.2252C13.8531 11.0452 13.8531 10.9552 13.7031 10.7752C13.5381 10.5802 12.7881 10.5502 8.60313 10.5502C4.41813 10.5502 3.66813 10.5802 3.50313 10.7752Z" fill="white"/>
<path d="M3.50313 13.1751C3.35312 13.3551 3.35312 13.4451 3.50313 13.6251C3.66813 13.8201 4.26813 13.8501 7.68813 13.8201L11.6781 13.7751V13.4001V13.0251L7.68813 12.9801C4.26813 12.9501 3.66813 12.9801 3.50313 13.1751Z" fill="white"/>
<path d="M3.50312 15.575C3.35313 15.755 3.35313 15.845 3.50312 16.025C3.66813 16.22 4.22312 16.25 7.23812 16.22L10.7781 16.175V15.8V15.425L7.23812 15.38C4.22312 15.35 3.66813 15.38 3.50312 15.575Z" fill="white"/>
<path d="M16.505 14.2401C16.445 14.3001 16.4 14.4501 16.4 14.5851C16.4 14.7201 16.19 14.9451 15.95 15.0801C15.56 15.3051 15.5 15.4251 15.5 16.0101C15.5 16.8651 15.77 17.1501 16.64 17.1501C17.195 17.1501 17.3 17.1951 17.3 17.4501C17.3 17.6901 17.18 17.7351 16.445 17.7801C15.695 17.8251 15.575 17.8701 15.575 18.1251C15.575 18.3351 15.695 18.4401 15.995 18.4701C16.31 18.5151 16.4 18.5901 16.4 18.8901C16.4 19.2051 16.46 19.2651 16.745 19.2201C16.955 19.1901 17.09 19.0551 17.12 18.8301C17.15 18.6501 17.27 18.5001 17.375 18.5001C17.765 18.5001 18.095 17.7951 18.005 17.1951C17.885 16.5351 17.72 16.4001 16.895 16.4001C16.31 16.4001 16.25 16.3701 16.25 16.0251C16.25 15.6651 16.295 15.6501 17.06 15.6501C17.51 15.6501 17.93 15.5751 17.975 15.5001C18.11 15.2751 17.765 14.9001 17.435 14.9001C17.27 14.9001 17.15 14.7651 17.12 14.5701C17.075 14.2251 16.715 14.0451 16.505 14.2401Z" fill="white"/>
</svg>
