<svg width="30" height="31" viewBox="0 0 30 31" fill="none" xmlns="http://www.w3.org/2000/svg">
<path d="M0.94321 5.62485L0.942896 5.62464L0.951192 5.61366C0.973487 5.58414 0.998654 5.56365 1.00915 5.55525C1.02342 5.54383 1.03861 5.53305 1.05288 5.52342C1.08162 5.50402 1.11742 5.48203 1.15782 5.45834C1.23921 5.41062 1.3509 5.34922 1.48777 5.27651C1.76217 5.13076 2.14662 4.9349 2.61198 4.70341C3.54318 4.24022 4.80366 3.63177 6.16727 2.99123C7.52979 2.35121 8.77304 1.76935 9.6773 1.34747C10.1294 1.13654 10.4969 0.96554 10.7522 0.847235C10.8798 0.788105 10.9797 0.742016 11.0482 0.710649C11.0824 0.695009 11.1092 0.682789 11.128 0.674374L11.152 0.663784L11.1639 0.658838C11.1659 0.65806 11.1705 0.656239 11.1762 0.654263C11.1789 0.653355 11.1848 0.651354 11.1924 0.649284C11.1962 0.648272 11.2055 0.646078 11.2111 0.644949C11.2152 0.644224 11.2229 0.643251 11.2315 0.642391L11.2314 0.641905C11.2595 0.638857 11.2886 0.640924 11.2975 0.641562L11.2989 0.641659C11.3147 0.642738 11.3336 0.644453 11.3545 0.646559C11.3966 0.650808 11.4537 0.657366 11.5238 0.665918C11.6644 0.683069 11.8627 0.708878 12.1096 0.742033C12.6038 0.808378 13.2962 0.904573 14.12 1.02085C15.7677 1.25342 17.9426 1.56658 20.1119 1.88254C22.2812 2.1985 24.4451 2.51732 26.0708 2.7612C26.8836 2.88313 27.5623 2.9864 28.0399 3.06125C28.2786 3.09864 28.4679 3.12908 28.599 3.15125C28.6642 3.16229 28.7166 3.17155 28.7539 3.17875C28.7721 3.18227 28.7894 3.18581 28.8038 3.18922C28.8066 3.18987 28.8099 3.19069 28.8137 3.19166C28.819 3.19303 28.8251 3.1947 28.8314 3.19668C28.8338 3.19742 28.8373 3.19853 28.8416 3.20003C28.8463 3.20169 28.8519 3.20383 28.8581 3.20646L28.8582 3.2065C28.8609 3.20754 28.9031 3.2242 28.9409 3.26311C28.9791 3.30241 28.9947 3.34458 28.9981 3.35375C29.0044 3.37025 29.0083 3.38503 29.0106 3.39461C29.0153 3.4143 29.0186 3.43477 29.0211 3.4523C29.0262 3.48857 29.0307 3.53525 29.035 3.5888C29.0436 3.69707 29.0521 3.84914 29.0606 4.03692C29.0777 4.41329 29.0949 4.94235 29.1117 5.57184C29.1453 6.83127 29.1771 8.49766 29.2014 10.1595C29.2258 11.8213 29.2427 13.4796 29.2464 14.7228C29.2483 15.3441 29.2468 15.8631 29.2414 16.2272C29.2387 16.4088 29.2349 16.5545 29.2299 16.6558C29.2274 16.7056 29.2244 16.7496 29.2205 16.7834C29.2187 16.7986 29.2156 16.8214 29.2098 16.8442C29.2074 16.8535 29.2008 16.8786 29.1861 16.9064C29.1789 16.9201 29.163 16.9476 29.134 16.9745C29.1035 17.0029 29.0451 17.042 28.9625 17.042C28.8901 17.042 28.838 17.011 28.8259 17.0038L28.8252 17.0034C28.8051 16.9914 28.7888 16.9785 28.7783 16.9697C28.7565 16.9515 28.7349 16.93 28.7159 16.9099C28.6768 16.8686 28.6291 16.8131 28.5775 16.7499C28.4732 16.6224 28.3416 16.4504 28.2079 16.267L28.2061 16.2645L27.729 15.5922L27.6838 15.5285L27.6829 15.4505L27.6201 10.1758L27.5628 5.35982L24.7817 7.20059L24.7811 7.20098L21.728 9.23432L21.7165 10.8063V10.8071V12.5257V12.7757H21.4665H20.9642H20.462H20.212V12.5257V10.9097C20.212 10.3147 20.2024 9.91432 20.18 9.65992C20.1715 9.56385 20.1617 9.49621 20.1522 9.45044C20.1512 9.45026 20.1502 9.45008 20.1493 9.44991C20.0873 9.43861 20.0005 9.42397 19.8916 9.40639C19.6742 9.37128 19.3732 9.3252 19.0157 9.27192C18.3009 9.1654 17.3631 9.03057 16.4217 8.89811C15.4804 8.76565 14.5362 8.63565 13.8088 8.5388C13.4449 8.49035 13.1359 8.45028 12.9088 8.42236C12.7951 8.40838 12.7028 8.39755 12.6347 8.39025C12.6288 8.38961 12.623 8.389 12.6175 8.38843C12.6056 8.4544 12.593 8.56391 12.5831 8.74207C12.5537 9.26646 12.5505 10.2591 12.5505 12.1379V16.1456V16.6291L12.156 16.3496L10.788 15.3805C10.7879 15.3804 10.7878 15.3803 10.7877 15.3803C10.4116 15.1156 10.0645 14.8742 9.80719 14.6991C9.67825 14.6114 9.57331 14.5414 9.49905 14.4937C9.49611 14.4919 9.49322 14.49 9.49041 14.4882C9.48934 14.4888 9.48826 14.4894 9.48717 14.49C9.41405 14.5292 9.31092 14.5866 9.18411 14.6583C8.94064 14.796 8.61589 14.9831 8.26164 15.1871L8.2212 15.2104C7.85523 15.4312 7.51358 15.6267 7.25882 15.7644C7.13172 15.8331 7.02346 15.8889 6.94355 15.9266C6.90457 15.9449 6.86674 15.9616 6.83457 15.9732C6.81986 15.9785 6.79657 15.9864 6.77055 15.9913C6.75836 15.9935 6.73362 15.9975 6.70317 15.9958C6.68162 15.9946 6.60101 15.9883 6.53369 15.919L6.5057 15.8902L6.48814 15.854C6.47427 15.8255 6.46924 15.8007 6.46813 15.7955C6.46612 15.786 6.46503 15.7781 6.46447 15.7737C6.46333 15.7647 6.46278 15.7568 6.46251 15.7523C6.46191 15.7427 6.46162 15.7324 6.46145 15.7232C6.4611 15.7043 6.46106 15.6791 6.46124 15.6492C6.46162 15.5889 6.46298 15.5028 6.46524 15.3944C6.46978 15.1773 6.47805 14.8673 6.48983 14.4879C6.5134 13.7291 6.5511 12.6908 6.60136 11.5587C6.64529 10.4214 6.68291 9.38201 6.70484 8.62392C6.71581 8.24454 6.72282 7.93709 6.72476 7.72351C6.72526 7.66854 6.72541 7.62049 6.72523 7.5795C6.72338 7.57915 6.72151 7.57879 6.71962 7.57842C6.60409 7.55623 6.44 7.5276 6.24133 7.49468C5.84458 7.42895 5.31639 7.34716 4.77728 7.26729C4.23822 7.18742 3.68949 7.10965 3.25173 7.0519C2.8025 6.99264 2.49523 6.9581 2.41884 6.9581H2.38005V15.6156V24.3104L2.64629 24.3537C2.89891 24.3926 5.11607 24.7022 7.56189 25.025C8.78672 25.1867 9.90158 25.3387 10.7102 25.4502C11.1145 25.506 11.4423 25.5517 11.6691 25.5834L11.9303 25.6201L11.9984 25.6297L12.0158 25.6321L12.0202 25.6327L12.0213 25.6329L12.0215 25.6329L12.0216 25.6329L11.9866 25.8805L12.0216 25.6329L12.2366 25.6634V25.832C12.243 25.8465 12.2505 25.8633 12.2593 25.883C12.267 25.9003 12.2758 25.9199 12.2857 25.9422C12.328 26.0373 12.385 26.1676 12.4424 26.3119C12.5075 26.4532 12.5607 26.5898 12.5952 26.6983C12.6124 26.7523 12.6271 26.8058 12.6353 26.8522C12.6393 26.8744 12.6435 26.9044 12.6432 26.9364C12.643 26.9524 12.6417 26.9769 12.6349 27.0051C12.6295 27.0271 12.6168 27.0683 12.5841 27.1092C12.544 27.1597 12.4958 27.1798 12.4846 27.1845L12.4842 27.1847C12.4601 27.1948 12.4396 27.1988 12.4309 27.2004C12.4119 27.2039 12.3959 27.2046 12.3895 27.2048C12.3741 27.2054 12.3586 27.2049 12.3473 27.2044C12.3228 27.2033 12.2906 27.2008 12.2535 27.1975C12.1782 27.1909 12.0699 27.1796 11.9336 27.1644C11.6603 27.1339 11.2679 27.0869 10.7865 27.0271C9.82335 26.9074 8.50098 26.736 7.05644 26.542C5.60641 26.3481 4.26331 26.1704 3.2687 26.0411C2.77131 25.9765 2.36145 25.9241 2.06906 25.8878C1.92277 25.8696 1.8065 25.8556 1.72361 25.8462C1.66302 25.8393 1.62841 25.8358 1.6127 25.8343C1.60421 25.8334 1.60125 25.8331 1.60269 25.8331C1.49126 25.8331 1.37562 25.7925 1.28459 25.7466C1.19139 25.6996 1.09212 25.6312 1.01577 25.5444C0.955714 25.4798 0.922818 25.4 0.900919 25.3212C0.877929 25.2384 0.86079 25.1328 0.846707 24.9983C0.818434 24.7283 0.79871 24.302 0.784583 23.6233C0.756265 22.2626 0.75 19.8549 0.75 15.5768C0.75 11.8407 0.759413 9.42778 0.782991 7.92749C0.794772 7.17786 0.81013 6.65288 0.829854 6.30354C0.839686 6.12939 0.850839 5.99437 0.863889 5.89514C0.87038 5.84578 0.877932 5.8006 0.887286 5.7617C0.894792 5.73048 0.909653 5.67476 0.94321 5.62485ZM12.8692 2.45679L12.8692 2.45684L12.8645 2.4561C12.5794 2.41144 12.2885 2.37322 12.0482 2.34785C11.8123 2.32293 11.6461 2.31283 11.5766 2.31562C11.576 2.31579 11.5754 2.31597 11.5748 2.31616C11.5598 2.32066 11.5367 2.32847 11.5041 2.34037C11.4396 2.36397 11.3491 2.3996 11.235 2.44638C11.0072 2.5397 10.6937 2.67388 10.322 2.83634C9.57909 3.16105 8.60924 3.59638 7.64076 4.03805C6.67228 4.47971 5.7063 4.92718 4.97114 5.27612C4.71755 5.39649 4.49199 5.50486 4.30356 5.59707C4.67509 5.66005 5.17088 5.737 5.71778 5.81406C5.71795 5.81409 5.71813 5.81411 5.71831 5.81414L7.79898 6.09895L10.7595 4.22215C10.7597 4.22201 10.7599 4.22187 10.7602 4.22173C11.5878 3.69233 12.3431 3.20189 12.8926 2.83918C13.0686 2.72299 13.2232 2.62014 13.3521 2.53344C13.2094 2.50739 13.0446 2.48087 12.8692 2.45679ZM11.5877 2.31266C11.5877 2.31263 11.5866 2.31285 11.5843 2.31345C11.5865 2.31301 11.5877 2.31269 11.5877 2.31266ZM25.7893 4.56391C25.9198 4.4741 26.0376 4.39216 26.1399 4.31977C25.9935 4.29811 25.8222 4.27314 25.6307 4.24547C25.016 4.15667 24.194 4.04038 23.3153 3.91759C22.4369 3.79484 21.6028 3.68185 20.9667 3.59957C20.6485 3.55842 20.3806 3.52505 20.1817 3.502C20.0821 3.49047 20.0008 3.48163 19.9396 3.47572C19.9089 3.47276 19.8842 3.47061 19.8652 3.46923L19.8497 3.46826C19.8389 3.47162 19.8227 3.47733 19.8001 3.48633C19.7484 3.50698 19.677 3.53948 19.5855 3.58457C19.4032 3.6744 19.1553 3.80725 18.8532 3.97687C18.2497 4.31565 17.4398 4.79535 16.5248 5.35672C15.2361 6.15287 14.4746 6.63633 14.0667 6.92639C14.0431 6.94312 14.0211 6.95898 14.0005 6.97401C14.6874 7.08884 16.0602 7.28229 17.4011 7.45893C18.2346 7.56873 19.049 7.67117 19.6662 7.74288C19.9751 7.77877 20.2332 7.8068 20.4193 7.82421C20.5126 7.83295 20.5856 7.83881 20.6369 7.84172C20.6515 7.84254 20.6635 7.84308 20.6731 7.8434C20.687 7.83684 20.7101 7.82561 20.7443 7.80748C20.8043 7.77566 20.8836 7.73094 20.9805 7.67434C21.1739 7.56134 21.4299 7.40517 21.7273 7.21973C22.3218 6.8491 23.0759 6.36493 23.8126 5.88316C24.5494 5.40135 25.2673 4.92296 25.7893 4.56391ZM19.8612 3.46509C19.8611 3.46509 19.8605 3.46521 19.8595 3.46547L19.8612 3.46509ZM20.7003 7.84354C20.7001 7.8435 20.6987 7.84353 20.6962 7.84373L20.7003 7.84354Z" fill="white" stroke="white" stroke-width="0.5"/>
<path d="M19.5241 15.047C16.134 15.8098 13.7734 18.8608 13.7734 22.4807C13.7734 25.842 15.7699 28.6733 18.8963 29.7334C20.1645 30.1729 22.0479 30.16 23.3537 29.7204C26.543 28.6603 28.6775 25.4283 28.4641 22.0024C28.1627 17.3612 23.9062 14.0516 19.5241 15.047ZM24.0946 20.2054C24.4461 20.5932 24.7349 21.0198 24.7349 21.1491C24.7349 21.356 22.8264 23.3727 20.8174 25.312L20.2273 25.8808L18.8461 24.4846C18.0802 23.7089 17.4524 23.0108 17.4524 22.9073C17.4524 22.6488 18.708 21.3172 18.9466 21.3172C19.047 21.3172 19.3986 21.5757 19.7125 21.8989L20.2901 22.4807L21.7215 20.994C22.5125 20.1795 23.2282 19.5072 23.3035 19.5072C23.3789 19.5072 23.7304 19.8175 24.0946 20.2054Z" fill="white"/>
</svg>
