<svg width="30" height="31" viewBox="0 0 30 31" fill="none" xmlns="http://www.w3.org/2000/svg">
<path d="M10.4905 20.7406L6.11555 16.3656C6.00115 16.2498 5.86489 16.1578 5.71469 16.0951C5.56449 16.0323 5.40333 16 5.24055 16C5.07777 16 4.91661 16.0323 4.7664 16.0951C4.6162 16.1578 4.47995 16.2498 4.36555 16.3656C4.24975 16.48 4.15781 16.6162 4.09506 16.7664C4.03231 16.9166 4 17.0778 4 17.2405C4 17.4033 4.03231 17.5645 4.09506 17.7147C4.15781 17.8649 4.24975 18.0011 4.36555 18.1156L9.60305 23.3531C10.0905 23.8406 10.878 23.8406 11.3655 23.3531L24.6155 10.1155C24.7313 10.0011 24.8233 9.86489 24.886 9.71469C24.9488 9.56449 24.9811 9.40333 24.9811 9.24055C24.9811 9.07777 24.9488 8.91661 24.886 8.7664C24.8233 8.6162 24.7313 8.47995 24.6155 8.36555C24.5011 8.24975 24.3649 8.15781 24.2147 8.09506C24.0645 8.03231 23.9033 8 23.7406 8C23.5778 8 23.4166 8.03231 23.2664 8.09506C23.1162 8.15781 22.98 8.24975 22.8655 8.36555L10.4905 20.7406Z" fill="white"/>
</svg>
