<svg width="30" height="31" viewBox="0 0 30 31" fill="none" xmlns="http://www.w3.org/2000/svg">
<g clip-path="url(#clip0_4140_3242)">
<path d="M18.5 20.3875V8.5C18.5 7.83696 18.2366 7.20107 17.7678 6.73223C17.2989 6.26339 16.663 6 16 6H3.5C2.83696 6 2.20107 6.26339 1.73223 6.73223C1.26339 7.20107 1 7.83696 1 8.5V19.75C1 20.0815 1.1317 20.3995 1.36612 20.6339C1.60054 20.8683 1.91848 21 2.25 21H3.1375C3.38116 20.4436 3.78167 19.9704 4.29005 19.638C4.79842 19.3057 5.39263 19.1287 6 19.1287C6.60737 19.1287 7.20158 19.3057 7.70995 19.638C8.21833 19.9704 8.61884 20.4436 8.8625 21H18.1375C18.2288 20.78 18.35 20.5738 18.5 20.3875ZM18.5 20.3875C18.8249 19.9469 19.2602 19.5997 19.762 19.381C20.2639 19.1624 20.8146 19.0799 21.3585 19.1421C21.9024 19.2042 22.4203 19.4087 22.8599 19.7349C23.2996 20.0611 23.6454 20.4975 23.8625 21H26V17.3875C26.0005 16.4804 25.7542 15.5903 25.2875 14.8125L23.75 12.25L22.6125 10.3625C22.5019 10.1759 22.3446 10.0213 22.1561 9.91392C21.9676 9.80653 21.7544 9.75004 21.5375 9.75H18.5V20.3875Z" stroke="white" stroke-width="2.14286" stroke-linecap="round" stroke-linejoin="round"/>
<path d="M12.25 14.75H6M12.25 11H6M9.125 22.25C9.12555 22.7149 9.02237 23.174 8.82298 23.594C8.6236 24.0139 8.33303 24.3841 7.97245 24.6775C7.61188 24.971 7.19038 25.1802 6.73867 25.2901C6.28697 25.4 5.81644 25.4077 5.36137 25.3127C4.9063 25.2177 4.47816 25.0224 4.10815 24.7409C3.73814 24.4595 3.43558 24.0991 3.22252 23.6859C3.00946 23.2727 2.89127 22.8172 2.87656 22.3526C2.86186 21.8879 2.951 21.4258 3.1375 21C3.42525 20.343 3.93027 19.8049 4.56778 19.4762C5.2053 19.1475 5.93649 19.048 6.63863 19.1946C7.34077 19.3412 7.97112 19.7249 8.42385 20.2812C8.87659 20.8376 9.12415 21.5327 9.125 22.25ZM24.125 22.25C24.1255 22.7149 24.0224 23.174 23.823 23.594C23.6236 24.0139 23.333 24.3841 22.9725 24.6775C22.6119 24.971 22.1904 25.1802 21.7387 25.2901C21.287 25.4 20.8164 25.4077 20.3614 25.3127C19.9063 25.2177 19.4782 25.0224 19.1081 24.7409C18.7381 24.4595 18.4356 24.0991 18.2225 23.6859C18.0095 23.2727 17.8913 22.8172 17.8766 22.3526C17.8619 21.8879 17.951 21.4258 18.1375 21C18.2287 20.78 18.35 20.5738 18.5 20.3875C18.8248 19.9469 19.2602 19.5997 19.762 19.381C20.2639 19.1624 20.8146 19.0799 21.3585 19.1421C21.9024 19.2042 22.4203 19.4087 22.8599 19.7349C23.2995 20.0611 23.6454 20.4975 23.8625 21C24.0375 21.3937 24.1275 21.82 24.125 22.25Z" stroke="white" stroke-width="2.14286" stroke-linecap="round" stroke-linejoin="round"/>
</g>
<defs>
<clipPath id="clip0_4140_3242">
<rect width="30" height="30" fill="white" transform="translate(0 0.5)"/>
</clipPath>
</defs>
</svg>
