<svg width="24" height="24" viewBox="0 0 24 24" fill="none" xmlns="http://www.w3.org/2000/svg">
<path d="M3.5098 2.67333L3.5082 2.67375C2.98393 2.81793 2.49741 3.29 2.35225 3.81783L2.35173 3.81974L2.35174 3.81974C2.34533 3.84433 2.34259 3.87853 2.34072 3.90482C2.33843 3.93709 2.33628 3.97952 2.33422 4.03137C2.3301 4.13529 2.32623 4.28107 2.3226 4.46726C2.31535 4.83987 2.30903 5.37725 2.30383 6.0715C2.29344 7.46013 2.2875 9.47812 2.2875 12.0644V20.0516V20.087L2.30334 20.1186L2.45729 20.4265C2.54894 20.6159 2.73884 20.8638 2.89299 20.9916C2.90816 21.0047 2.92305 21.0178 2.93794 21.031C3.02856 21.1111 3.11895 21.1909 3.26846 21.2483C3.43658 21.3129 3.67502 21.3492 4.0868 21.3719C4.86338 21.4147 6.32159 21.4107 9.24454 21.4027C9.43572 21.4022 9.63318 21.4017 9.83712 21.4011L9.83718 21.4011C12.6957 21.3922 14.1984 21.3863 15.0107 21.3692C15.4158 21.3606 15.6546 21.3492 15.8057 21.3326C15.9603 21.3155 16.0357 21.2916 16.1072 21.2527C16.1075 21.2525 16.1079 21.2523 16.1082 21.2521L16.0364 21.1205M3.5098 2.67333L16.3808 20.8889C16.3036 20.9542 16.1492 21.0611 16.0364 21.1205M3.5098 2.67333C3.58488 2.65357 3.72848 2.64124 3.95359 2.63142C4.18554 2.62129 4.52034 2.61348 4.99059 2.60753C5.9314 2.59564 7.41983 2.59119 9.72372 2.59119M3.5098 2.67333L9.72372 2.59119M16.0364 21.1205C15.8404 21.2274 15.5554 21.2333 9.83672 21.2511C4.06226 21.2666 3.50716 21.2776 3.15412 21.0159C3.10053 20.9762 3.05159 20.9302 2.98977 20.877C2.85319 20.7642 2.67503 20.5326 2.5919 20.3603L2.4375 20.0516L16.0364 21.1205ZM15.7395 3.74478C15.7869 3.76991 15.8268 3.78994 15.8603 3.81768C16.0406 3.96684 16.0364 4.33893 16.0364 6.92774C16.0364 8.79239 16.0601 9.84943 16.1017 9.96819M15.7395 3.74478L2.49688 3.8576C2.62753 3.38253 3.07291 2.94903 3.54798 2.81839C3.77363 2.759 5.11571 2.74119 9.72389 2.74119M15.7395 3.74478C15.6623 3.70321 13.661 3.68539 9.67044 3.68539H3.71425L15.7395 3.74478ZM16.1017 9.96819C16.1848 10.2117 16.4402 10.3186 16.6658 10.2057C16.7169 10.1816 16.7599 10.1618 16.796 10.1333C16.9905 9.97954 16.9847 9.57245 16.9746 6.86242L16.9568 3.89323L16.7846 3.5785C16.5768 3.20438 16.2917 2.96091 15.8998 2.83027C15.6444 2.74713 15.009 2.73525 9.72389 2.74119M16.1017 9.96819L15.9601 10.0177C15.96 10.0175 15.96 10.0173 15.9599 10.0171M16.1017 9.96819L15.9597 10.0167C15.9598 10.0168 15.9598 10.0169 15.9599 10.0171M9.72389 2.74119L9.72372 2.59119M9.72389 2.74119V2.59119H9.72372M9.72372 2.59119C12.3658 2.58822 13.8474 2.5897 14.7002 2.60234C15.1263 2.60865 15.3984 2.61778 15.581 2.63082C15.763 2.64381 15.865 2.66117 15.9462 2.68763L15.9472 2.68796C16.3769 2.83117 16.6908 3.10072 16.9157 3.50565L16.9162 3.5065L17.0884 3.82123L17.1066 3.85446L17.1068 3.89233L17.1246 6.86152L17.1246 6.86187C17.1249 6.92577 17.1251 6.98841 17.1253 7.04981C17.1309 8.52643 17.1337 9.28732 17.0966 9.69455C17.0775 9.90386 17.0462 10.0486 16.9794 10.1516C16.9116 10.2562 16.8168 10.3006 16.7435 10.335C16.7394 10.3369 16.7353 10.3388 16.7313 10.3407C16.4225 10.494 16.0715 10.3431 15.9599 10.0171M9.72372 2.59119L15.9599 10.0171M15.6864 3.88644L15.6843 3.88616C15.6686 3.88426 15.6445 3.88215 15.6106 3.87998C15.5434 3.87569 15.4453 3.87164 15.3155 3.8679C15.0561 3.86042 14.6752 3.85431 14.171 3.84949C13.163 3.83985 11.6657 3.83539 9.67044 3.83539H3.77638L3.64217 3.96961L3.50795 4.10383V11.9991V19.89L3.63795 20.0244L3.63801 20.0245L3.77189 20.1628H9.68232C12.263 20.1628 13.7597 20.1599 14.6238 20.1473C15.0565 20.141 15.3275 20.1323 15.4958 20.1206C15.5803 20.1148 15.6348 20.1084 15.6692 20.1022C15.6826 20.0997 15.6908 20.0976 15.6951 20.0964L15.6864 3.88644Z" fill="white" stroke="white" stroke-width="0.3"/>
<path d="M5.25107 5.72372C4.96009 5.97313 5.09667 6.45414 5.46485 6.48383C5.54799 6.48977 7.51359 6.48977 9.82956 6.48383C13.2798 6.47789 14.0636 6.46007 14.1527 6.39475C14.2121 6.34724 14.2715 6.2166 14.2952 6.10377C14.319 5.93156 14.3012 5.86624 14.1764 5.74153L14.022 5.58713H9.71673H5.4114L5.25107 5.72372Z" fill="white"/>
<path d="M5.27363 8.50863C5.0361 8.69272 5.05985 9.19154 5.32114 9.29249C5.37459 9.31031 7.358 9.32812 9.72148 9.32812H14.0268L14.1693 9.17967C14.2525 9.10247 14.3178 8.96588 14.3178 8.88275C14.3178 8.79961 14.2525 8.66303 14.1693 8.58583L14.0268 8.43737H9.69772C6.33066 8.43737 5.35083 8.45518 5.27363 8.50863Z" fill="white"/>
<path d="M15.5616 10.7288C14.4749 10.9604 13.3704 11.6908 12.7647 12.5756C11.482 14.4403 11.7433 16.9878 13.3823 18.514C14.9916 20.0164 17.3907 20.1827 19.1425 18.9237C20.3717 18.0449 21.0903 16.6375 21.0784 15.1648C21.0784 14.5828 20.9893 14.3096 20.7637 14.2027C20.6152 14.1315 20.5677 14.1374 20.3955 14.2205C20.2827 14.2681 20.1876 14.3453 20.1876 14.3868C20.1817 14.4284 20.1698 14.7728 20.1639 15.1469C20.152 15.6933 20.1164 15.9249 19.9917 16.3109C19.6473 17.3857 18.8634 18.2052 17.7707 18.6387C17.4025 18.7812 17.3075 18.799 16.5118 18.799C15.7101 18.799 15.621 18.7872 15.235 18.6328C13.3466 17.8845 12.4024 15.8655 13.0675 13.9771C13.3704 13.1101 14.0414 12.344 14.855 11.9462C16.2089 11.2811 17.652 11.4355 18.8515 12.3797C19.2434 12.6825 19.4691 12.7241 19.6591 12.5341C19.8492 12.344 19.8195 12.0293 19.5879 11.8096C19.285 11.5305 18.614 11.1088 18.2161 10.9544C17.4204 10.6397 16.3752 10.5506 15.5616 10.7288Z" fill="white"/>
<path d="M5.40833 11.2702C5.06984 11.3949 4.99264 11.8403 5.27175 12.0541C5.42614 12.1788 5.4499 12.1788 9.00698 12.1669C12.4275 12.1491 12.5878 12.1432 12.7066 12.0363C12.8669 11.8938 12.8729 11.585 12.7185 11.4009L12.6056 11.2584L9.04855 11.2465C7.09483 11.2405 5.45583 11.2524 5.40833 11.2702Z" fill="white"/>
<path d="M20.9485 11.7794C20.8594 11.8209 20.5506 12.106 20.2656 12.4207C19.9805 12.7295 19.0541 13.7331 18.2109 14.6476C17.3617 15.5562 16.6372 16.3401 16.6016 16.3816C16.5422 16.4469 16.3462 16.245 15.5921 15.3602C14.5707 14.1607 14.4519 14.0716 14.1431 14.2973C14.0362 14.3804 13.9828 14.4813 13.9709 14.6298C13.9531 14.8258 14.0243 14.9267 15.0873 16.1678C15.7108 16.8923 16.2868 17.5159 16.364 17.5455C16.4591 17.5812 16.5659 17.5812 16.661 17.5455C16.7382 17.5159 17.4151 16.8389 18.1574 16.0313C18.9057 15.2296 19.9508 14.1013 20.4912 13.5253C21.0316 12.9433 21.4948 12.4029 21.5245 12.3257C21.6611 11.9753 21.2988 11.6369 20.9485 11.7794Z" fill="white"/>
<path d="M7.42476 13.2593C7.32975 13.3662 7.306 13.4671 7.306 13.8175C7.306 14.2332 7.30006 14.2451 7.14566 14.2747C6.91406 14.3223 6.55182 14.6429 6.40336 14.928C5.98174 15.7356 6.54588 16.656 7.59698 16.8758C8.07205 16.9708 8.13737 17.0183 8.13737 17.2558C8.13737 17.6477 7.91171 17.6952 6.7656 17.5468C6.55776 17.523 6.46869 17.5349 6.39743 17.6121C6.24303 17.7606 6.2074 17.9981 6.30241 18.1703C6.39149 18.3307 6.83093 18.5207 7.14566 18.5266L7.306 18.5326V18.9958C7.306 19.4055 7.32381 19.4768 7.44258 19.5896C7.62667 19.7618 7.91765 19.7618 8.07799 19.5896C8.17894 19.4827 8.19675 19.3817 8.19675 18.9839L8.20269 18.5029L8.46398 18.3425C9.15283 17.9268 9.25972 16.9054 8.67182 16.3769C8.45804 16.181 8.20269 16.0741 7.65636 15.9553C7.30006 15.8781 7.0744 15.5277 7.23474 15.2902C7.37132 15.0764 7.81076 15.0289 8.29177 15.1774C8.73715 15.308 9.02813 15.1714 9.02813 14.8211C9.02813 14.5538 8.87373 14.3995 8.52336 14.2985L8.22645 14.2154L8.19675 13.7937C8.17894 13.5087 8.13143 13.3305 8.06611 13.2474C7.92359 13.0811 7.5851 13.0871 7.42476 13.2593Z" fill="white"/>
</svg>
