<svg width="24" height="24" viewBox="0 0 24 24" fill="none" xmlns="http://www.w3.org/2000/svg">
<path d="M7.04844 6.46185C7.32059 6.55765 7.61025 6.59343 7.89754 6.56674C8.18483 6.54004 8.46293 6.45151 8.71278 6.30721C8.96262 6.1629 9.17829 5.96625 9.34497 5.73075C9.51166 5.49524 9.62542 5.22646 9.67844 4.94285L9.99844 3.22285C11.3142 2.92311 12.6806 2.92311 13.9964 3.22285L14.3184 4.94285C14.3715 5.22646 14.4852 5.49524 14.6519 5.73075C14.8186 5.96625 15.0343 6.1629 15.2841 6.30721C15.5339 6.45151 15.8121 6.54004 16.0993 6.56674C16.3866 6.59343 16.6763 6.55765 16.9484 6.46185L18.5974 5.88185C19.5153 6.87063 20.1992 8.05312 20.5984 9.34185L19.2684 10.4819C19.0494 10.6696 18.8736 10.9025 18.753 11.1647C18.6325 11.4268 18.57 11.7119 18.57 12.0004C18.57 12.2889 18.6325 12.5739 18.753 12.8361C18.8736 13.0982 19.0494 13.3311 19.2684 13.5189L20.5984 14.6579C20.1992 15.9466 19.5153 17.1291 18.5974 18.1179L16.9474 17.5379C16.6753 17.4421 16.3856 17.4063 16.0983 17.433C15.8111 17.4597 15.5329 17.5482 15.2831 17.6925C15.0333 17.8368 14.8176 18.0335 14.6509 18.269C14.4842 18.5045 14.3705 18.7732 14.3174 19.0569L13.9984 20.7769C12.6826 21.0766 11.3162 21.0766 10.0004 20.7769L9.67844 19.0569C9.62542 18.7732 9.51166 18.5045 9.34497 18.269C9.17829 18.0335 8.96262 17.8368 8.71278 17.6925C8.46293 17.5482 8.18483 17.4597 7.89754 17.433C7.61025 17.4063 7.32059 17.4421 7.04844 17.5379L5.39944 18.1179C4.48153 17.1291 3.79767 15.9466 3.39844 14.6579L4.72844 13.5179C4.94731 13.3301 5.123 13.0972 5.24345 12.8352C5.36389 12.5732 5.42626 12.2882 5.42626 11.9999C5.42626 11.7115 5.36389 11.4265 5.24345 11.1645C5.123 10.9025 4.94731 10.6696 4.72844 10.4819L3.39844 9.34185C3.79737 8.05321 4.48089 6.87073 5.39844 5.88185L7.04844 6.46185ZM11.9984 8.99985C12.7941 8.99985 13.5571 9.31592 14.1198 9.87853C14.6824 10.4411 14.9984 11.2042 14.9984 11.9999C14.9984 12.7955 14.6824 13.5586 14.1198 14.1212C13.5571 14.6838 12.7941 14.9999 11.9984 14.9999C11.2028 14.9999 10.4397 14.6838 9.87712 14.1212C9.31451 13.5586 8.99844 12.7955 8.99844 11.9999C8.99844 11.2042 9.31451 10.4411 9.87712 9.87853C10.4397 9.31592 11.2028 8.99985 11.9984 8.99985Z" stroke="white" stroke-width="1.5" stroke-linecap="round" stroke-linejoin="round"/>
</svg>
