<svg width="28" height="29" viewBox="0 0 28 29" fill="none" xmlns="http://www.w3.org/2000/svg">
<path d="M5.68868 11.6806C5.75607 10.8046 5.78976 10.3665 6.07731 10.1003C6.36486 9.83398 6.80417 9.83398 7.68279 9.83398H20.312C21.1906 9.83398 21.6299 9.83398 21.9175 10.1003C22.205 10.3665 22.2387 10.8046 22.3061 11.6806L22.6681 16.3871C22.9784 20.4199 23.1335 22.4362 21.9461 23.7185C20.7588 25.0007 18.7364 25.0007 14.6917 25.0007H13.3031C9.25839 25.0007 7.23604 25.0007 6.04868 23.7185C4.86132 22.4362 5.01643 20.4199 5.32664 16.3871L5.68868 11.6806Z" fill="#7E7E7E"/>
<path d="M9.91406 9.83398L9.91406 8.08399C9.91406 5.82882 11.7422 4.00065 13.9974 4.00065V4.00065C16.2526 4.00065 18.0807 5.82882 18.0807 8.08398L18.0807 9.83398" stroke="#828282"/>
<path d="M9.41406 13.916C9.41406 14.1922 9.63792 14.416 9.91406 14.416C10.1902 14.416 10.4141 14.1922 10.4141 13.916H9.41406ZM10.4141 13.916V12.166H9.41406V13.916H10.4141Z" fill="#BCBCBC"/>
<path d="M17.5859 13.916C17.5859 14.1922 17.8098 14.416 18.0859 14.416C18.3621 14.416 18.5859 14.1922 18.5859 13.916H17.5859ZM18.5859 13.916V12.166H17.5859V13.916H18.5859Z" fill="#BCBCBC"/>
</svg>
