<svg width="30" height="30" viewBox="0 0 30 30" fill="none" xmlns="http://www.w3.org/2000/svg">
<g filter="url(#filter0_b_4140_5888)">
<path d="M10.0474 19.1821C9.73633 19.4931 9.72998 20.0454 10.0537 20.3691C10.3838 20.6928 10.936 20.6865 11.2407 20.3818L14.9985 16.624L18.75 20.3754C19.0674 20.6928 19.6133 20.6928 19.937 20.3691C20.2607 20.039 20.2607 19.4995 19.9434 19.1821L16.1919 15.4306L19.9434 11.6728C20.2607 11.3554 20.2671 10.8095 19.937 10.4858C19.6133 10.1621 19.0674 10.1621 18.75 10.4794L14.9985 14.2309L11.2407 10.4794C10.936 10.1684 10.3774 10.1557 10.0537 10.4858C9.72998 10.8095 9.73633 11.3681 10.0474 11.6728L13.7988 15.4306L10.0474 19.1821Z" fill="#3C3C43" fill-opacity="0.6"/>
</g>
<defs>
<filter id="filter0_b_4140_5888" x="-54.3656" y="-54.3656" width="138.731" height="138.731" filterUnits="userSpaceOnUse" color-interpolation-filters="sRGB">
<feFlood flood-opacity="0" result="BackgroundImageFix"/>
<feGaussianBlur in="BackgroundImageFix" stdDeviation="27.1828"/>
<feComposite in2="SourceAlpha" operator="in" result="effect1_backgroundBlur_4140_5888"/>
<feBlend mode="normal" in="SourceGraphic" in2="effect1_backgroundBlur_4140_5888" result="shape"/>
</filter>
</defs>
</svg>
