<svg width="21" height="21" viewBox="0 0 21 21" fill="none" xmlns="http://www.w3.org/2000/svg">
<path d="M9.25 4.25H11.75C11.75 3.91848 11.6183 3.60054 11.3839 3.36612C11.1495 3.1317 10.8315 3 10.5 3C10.1685 3 9.85054 3.1317 9.61612 3.36612C9.3817 3.60054 9.25 3.91848 9.25 4.25ZM8 4.25C8 3.58696 8.26339 2.95107 8.73223 2.48223C9.20107 2.01339 9.83696 1.75 10.5 1.75C11.163 1.75 11.7989 2.01339 12.2678 2.48223C12.7366 2.95107 13 3.58696 13 4.25H18C18.1658 4.25 18.3247 4.31585 18.4419 4.43306C18.5592 4.55027 18.625 4.70924 18.625 4.875C18.625 5.04076 18.5592 5.19973 18.4419 5.31694C18.3247 5.43415 18.1658 5.5 18 5.5H17.295L15.7887 16.5475C15.6866 17.2962 15.3166 17.9825 14.7474 18.4793C14.1781 18.9762 13.4481 19.25 12.6925 19.25H8.3075C7.5519 19.25 6.82189 18.9762 6.25263 18.4793C5.68336 17.9825 5.31341 17.2962 5.21125 16.5475L3.705 5.5H3C2.83424 5.5 2.67527 5.43415 2.55806 5.31694C2.44085 5.19973 2.375 5.04076 2.375 4.875C2.375 4.70924 2.44085 4.55027 2.55806 4.43306C2.67527 4.31585 2.83424 4.25 3 4.25H8ZM9.25 8.625C9.25 8.45924 9.18415 8.30027 9.06694 8.18306C8.94973 8.06585 8.79076 8 8.625 8C8.45924 8 8.30027 8.06585 8.18306 8.18306C8.06585 8.30027 8 8.45924 8 8.625V14.875C8 15.0408 8.06585 15.1997 8.18306 15.3169C8.30027 15.4342 8.45924 15.5 8.625 15.5C8.79076 15.5 8.94973 15.4342 9.06694 15.3169C9.18415 15.1997 9.25 15.0408 9.25 14.875V8.625ZM12.375 8C12.5408 8 12.6997 8.06585 12.8169 8.18306C12.9342 8.30027 13 8.45924 13 8.625V14.875C13 15.0408 12.9342 15.1997 12.8169 15.3169C12.6997 15.4342 12.5408 15.5 12.375 15.5C12.2092 15.5 12.0503 15.4342 11.9331 15.3169C11.8158 15.1997 11.75 15.0408 11.75 14.875V8.625C11.75 8.45924 11.8158 8.30027 11.9331 8.18306C12.0503 8.06585 12.2092 8 12.375 8ZM6.45 16.3787C6.51134 16.8279 6.73331 17.2395 7.0748 17.5376C7.4163 17.8357 7.85422 17.9999 8.3075 18H12.6925C13.146 18.0002 13.5842 17.8361 13.926 17.538C14.2677 17.2399 14.4899 16.8281 14.5513 16.3787L16.0338 5.5H4.96625L6.45 16.3787Z" fill="white"/>
</svg>
