<svg width="16" height="16" viewBox="0 0 16 16" fill="none" xmlns="http://www.w3.org/2000/svg">
<path d="M2.75 14C2.28587 14 1.84075 13.8156 1.51256 13.4874C1.18437 13.1592 1 12.7141 1 12.25V9.75C1 9.55109 1.07902 9.36032 1.21967 9.21967C1.36032 9.07902 1.55109 9 1.75 9C1.94891 9 2.13968 9.07902 2.28033 9.21967C2.42098 9.36032 2.5 9.55109 2.5 9.75V12.25C2.5 12.388 2.612 12.5 2.75 12.5H13.25C13.3163 12.5 13.3799 12.4737 13.4268 12.4268C13.4737 12.3799 13.5 12.3163 13.5 12.25V9.75C13.5 9.55109 13.579 9.36032 13.7197 9.21967C13.8603 9.07902 14.0511 9 14.25 9C14.4489 9 14.6397 9.07902 14.7803 9.21967C14.921 9.36032 15 9.55109 15 9.75V12.25C15 12.7141 14.8156 13.1592 14.4874 13.4874C14.1592 13.8156 13.7141 14 13.25 14H2.75Z" fill="#4F3CFF"/>
<path d="M7.24953 7.689V2C7.24953 1.80109 7.32855 1.61032 7.4692 1.46967C7.60986 1.32902 7.80062 1.25 7.99953 1.25C8.19845 1.25 8.38921 1.32902 8.52986 1.46967C8.67052 1.61032 8.74953 1.80109 8.74953 2V7.689L10.7195 5.72C10.7891 5.6504 10.8718 5.59519 10.9627 5.55752C11.0536 5.51985 11.1511 5.50047 11.2495 5.50047C11.348 5.50047 11.4454 5.51985 11.5364 5.55752C11.6273 5.59519 11.7099 5.6504 11.7795 5.72C11.8491 5.7896 11.9043 5.87223 11.942 5.96317C11.9797 6.0541 11.9991 6.15157 11.9991 6.25C11.9991 6.34843 11.9797 6.4459 11.942 6.53683C11.9043 6.62777 11.8491 6.7104 11.7795 6.78L8.52953 10.03C8.38891 10.1705 8.19828 10.2493 7.99953 10.2493C7.80078 10.2493 7.61016 10.1705 7.46953 10.03L4.21953 6.78C4.14993 6.7104 4.09472 6.62777 4.05705 6.53683C4.01939 6.4459 4 6.34843 4 6.25C4 6.15157 4.01939 6.0541 4.05705 5.96317C4.09472 5.87223 4.14993 5.7896 4.21953 5.72C4.28913 5.6504 4.37176 5.59519 4.4627 5.55752C4.55364 5.51985 4.6511 5.50047 4.74953 5.50047C4.84796 5.50047 4.94543 5.51985 5.03637 5.55752C5.1273 5.59519 5.20993 5.6504 5.27953 5.72L7.24953 7.689Z" fill="#4F3CFF"/>
</svg>
