<svg width="19" height="15" viewBox="0 0 19 15" fill="none" xmlns="http://www.w3.org/2000/svg">
<path d="M3.09722 14.7116H16.5736C18.0808 14.7116 18.9511 13.8412 18.9511 12.1169V2.87549C18.9511 1.15942 18.0726 0.289062 16.3226 0.289062H2.8465C1.34829 0.289062 0.46936 1.15121 0.46936 2.87549V12.1166C0.46936 13.8491 1.3565 14.7112 3.09793 14.7112M8.71472 7.92299L2.39436 1.68728C2.57829 1.61192 2.79579 1.57013 3.05543 1.57013H16.3733C16.6326 1.57013 16.8586 1.61192 17.0511 1.70406L10.7397 7.92335C10.3797 8.28299 10.0615 8.44228 9.72686 8.44228C9.39186 8.44228 9.074 8.28299 8.714 7.92335M1.74936 12.1169V2.79192L6.56222 7.51335L1.75793 12.2587C1.74972 12.2169 1.74972 12.1666 1.74972 12.1166M17.6704 2.88371V12.2337L12.8908 7.51299L17.6708 2.81728L17.6704 2.88371ZM3.05543 13.4312C2.81257 13.4312 2.61186 13.3976 2.43615 13.3223L7.4415 8.37514L7.98579 8.91085C8.5715 9.48835 9.13222 9.73121 9.72686 9.73121C10.3126 9.73121 10.8819 9.48835 11.4679 8.91085L12.0119 8.37514L17.0094 13.3137C16.8333 13.3976 16.6158 13.4309 16.3729 13.4309L3.05543 13.4312Z" fill="white"/>
</svg>
