<svg width="17" height="19" viewBox="0 0 17 19" fill="none" xmlns="http://www.w3.org/2000/svg">
<path d="M7.25 3.25H9.75C9.75 2.91848 9.6183 2.60054 9.38388 2.36612C9.14946 2.1317 8.83152 2 8.5 2C8.16848 2 7.85054 2.1317 7.61612 2.36612C7.3817 2.60054 7.25 2.91848 7.25 3.25ZM6 3.25C6 2.58696 6.26339 1.95107 6.73223 1.48223C7.20107 1.01339 7.83696 0.75 8.5 0.75C9.16304 0.75 9.79893 1.01339 10.2678 1.48223C10.7366 1.95107 11 2.58696 11 3.25H16C16.1658 3.25 16.3247 3.31585 16.4419 3.43306C16.5592 3.55027 16.625 3.70924 16.625 3.875C16.625 4.04076 16.5592 4.19973 16.4419 4.31694C16.3247 4.43415 16.1658 4.5 16 4.5H15.295L13.7887 15.5475C13.6866 16.2962 13.3166 16.9825 12.7474 17.4793C12.1781 17.9762 11.4481 18.25 10.6925 18.25H6.3075C5.5519 18.25 4.82189 17.9762 4.25263 17.4793C3.68336 16.9825 3.31341 16.2962 3.21125 15.5475L1.705 4.5H1C0.83424 4.5 0.675268 4.43415 0.558058 4.31694C0.440848 4.19973 0.375 4.04076 0.375 3.875C0.375 3.70924 0.440848 3.55027 0.558058 3.43306C0.675268 3.31585 0.83424 3.25 1 3.25H6ZM7.25 7.625C7.25 7.45924 7.18415 7.30027 7.06694 7.18306C6.94973 7.06585 6.79076 7 6.625 7C6.45924 7 6.30027 7.06585 6.18306 7.18306C6.06585 7.30027 6 7.45924 6 7.625V13.875C6 14.0408 6.06585 14.1997 6.18306 14.3169C6.30027 14.4342 6.45924 14.5 6.625 14.5C6.79076 14.5 6.94973 14.4342 7.06694 14.3169C7.18415 14.1997 7.25 14.0408 7.25 13.875V7.625ZM10.375 7C10.5408 7 10.6997 7.06585 10.8169 7.18306C10.9342 7.30027 11 7.45924 11 7.625V13.875C11 14.0408 10.9342 14.1997 10.8169 14.3169C10.6997 14.4342 10.5408 14.5 10.375 14.5C10.2092 14.5 10.0503 14.4342 9.93306 14.3169C9.81585 14.1997 9.75 14.0408 9.75 13.875V7.625C9.75 7.45924 9.81585 7.30027 9.93306 7.18306C10.0503 7.06585 10.2092 7 10.375 7ZM4.45 15.3787C4.51134 15.8279 4.73331 16.2395 5.0748 16.5376C5.4163 16.8357 5.85422 16.9999 6.3075 17H10.6925C11.146 17.0002 11.5842 16.8361 11.926 16.538C12.2677 16.2399 12.4899 15.8281 12.5513 15.3787L14.0338 4.5H2.96625L4.45 15.3787Z" fill="white"/>
</svg>
